<svg width="25" height="24" viewBox="0 0 25 24" fill="none" xmlns="http://www.w3.org/2000/svg">
                                    <g clip-path="url(#clip0_4758_19232)">
                                        <path d="M15.333 12C17.543 12 19.333 10.21 19.333 8C19.333 5.79 17.543 4 15.333 4C13.123 4 11.333 5.79 11.333 8C11.333 10.21 13.123 12 15.333 12ZM15.333 6C16.433 6 17.333 6.9 17.333 8C17.333 9.1 16.433 10 15.333 10C14.233 10 13.333 9.1 13.333 8C13.333 6.9 14.233 6 15.333 6ZM15.333 14C12.663 14 7.33301 15.34 7.33301 18V20H23.333V18C23.333 15.34 18.003 14 15.333 14ZM9.33301 18C9.55301 17.28 12.643 16 15.333 16C18.033 16 21.133 17.29 21.333 18H9.33301ZM6.33301 15V12H9.33301V10H6.33301V7H4.33301V10H1.33301V12H4.33301V15H6.33301Z" fill="#333333"></path>
                                    </g>
                                    <defs>
                                        <clipPath id="clip0_4758_19232">
                                            <rect width="24" height="24" fill="white" transform="translate(0.333008)"></rect>
                                        </clipPath>
                                    </defs>
                                </svg>