<svg width="25" height="24" viewBox="0 0 25 24" fill="none" xmlns="http://www.w3.org/2000/svg">
                                    <path d="M14.667 7V5H22.667V7H14.667ZM14.667 11V9H22.667V11H14.667ZM14.667 15V13H22.667V15H14.667ZM8.66699 14C7.83366 14 7.12533 13.7083 6.54199 13.125C5.95866 12.5417 5.66699 11.8333 5.66699 11C5.66699 10.1667 5.95866 9.45833 6.54199 8.875C7.12533 8.29167 7.83366 8 8.66699 8C9.50033 8 10.2087 8.29167 10.792 8.875C11.3753 9.45833 11.667 10.1667 11.667 11C11.667 11.8333 11.3753 12.5417 10.792 13.125C10.2087 13.7083 9.50033 14 8.66699 14ZM2.66699 20V18.1C2.66699 17.75 2.75033 17.4167 2.91699 17.1C3.08366 16.7833 3.31699 16.5333 3.61699 16.35C4.36699 15.9 5.16283 15.5625 6.00449 15.3375C6.84616 15.1125 7.73366 15 8.66699 15C9.60033 15 10.4878 15.1125 11.3295 15.3375C12.1712 15.5625 12.967 15.9 13.717 16.35C14.017 16.5333 14.2503 16.7833 14.417 17.1C14.5837 17.4167 14.667 17.75 14.667 18.1V20H2.66699ZM4.81699 18H12.517C11.9337 17.6667 11.317 17.4167 10.667 17.25C10.017 17.0833 9.35033 17 8.66699 17C7.98366 17 7.31699 17.0833 6.66699 17.25C6.01699 17.4167 5.40033 17.6667 4.81699 18ZM8.66699 12C8.95033 12 9.18783 11.9042 9.37949 11.7125C9.57116 11.5208 9.66699 11.2833 9.66699 11C9.66699 10.7167 9.57116 10.4792 9.37949 10.2875C9.18783 10.0958 8.95033 10 8.66699 10C8.38366 10 8.14616 10.0958 7.95449 10.2875C7.76283 10.4792 7.66699 10.7167 7.66699 11C7.66699 11.2833 7.76283 11.5208 7.95449 11.7125C8.14616 11.9042 8.38366 12 8.66699 12Z" fill="#333333"></path>
                                </svg>